# This file uses centimeters as units for non-parametric coordinates.

g default
v 0.306481 17.061831 0.662698
v 0.306481 16.936804 0.675839
v 0.306481 16.811773 0.688980
v 0.306481 16.686746 0.702121
v 0.180767 17.186859 0.649557
v 0.180767 17.061831 0.662698
v 0.180767 16.936804 0.675839
v 0.180767 16.811773 0.688980
v 0.180767 16.686746 0.702121
v 0.180767 16.561719 0.715262
v 0.055053 17.186859 0.649557
v 0.055053 17.061831 0.662698
v 0.055053 16.936804 0.675839
v 0.055053 16.811773 0.688980
v 0.055053 16.686746 0.702121
v 0.055053 16.561719 0.715262
v -0.070661 17.186859 0.649557
v -0.070661 17.061831 0.662698
v -0.070661 16.936804 0.675839
v -0.070661 16.811773 0.688980
v -0.070661 16.686746 0.702121
v -0.070661 16.561719 0.715262
v -0.196376 17.186859 0.649557
v -0.196376 17.061831 0.662698
v -0.196376 16.936804 0.675839
v -0.196376 16.811773 0.688980
v -0.196376 16.686746 0.702121
v -0.196376 16.561719 0.715262
v -0.322090 17.061831 0.662698
v -0.322090 16.936804 0.675839
v -0.322090 16.811773 0.688980
v -0.322090 16.686746 0.702121
v -0.447804 16.874289 0.682409
v -0.416926 16.713211 0.699340
v -0.318946 16.564853 0.714932
v -0.169770 16.467407 0.725174
v -0.007804 16.436691 0.728403
v 0.154162 16.467407 0.725174
v 0.303338 16.564853 0.714932
v 0.401317 16.713211 0.699340
v 0.432196 16.874289 0.682409
v 0.401317 17.035370 0.665479
v 0.303338 17.183725 0.649886
v 0.154162 17.281170 0.639644
v -0.007804 17.311889 0.636416
v -0.169770 17.281170 0.639644
v -0.318946 17.183725 0.649886
v -0.416926 17.035370 0.665479
v -0.457804 16.873245 0.672464
v -0.447804 16.874289 0.682409
v -0.426224 16.708502 0.689779
v -0.416926 16.713211 0.699340
v -0.326018 16.556775 0.705726
v -0.318946 16.564853 0.714932
v -0.173451 16.457117 0.716201
v -0.169770 16.467407 0.725174
v -0.007804 16.425699 0.719503
v -0.007804 16.436691 0.728403
v 0.157843 16.457117 0.716201
v 0.154162 16.467407 0.725174
v 0.310409 16.556775 0.705726
v 0.303338 16.564853 0.714932
v 0.410615 16.708502 0.689779
v 0.401317 16.713211 0.699340
v 0.442196 16.873245 0.672464
v 0.432196 16.874289 0.682409
v 0.442196 16.873245 0.672464
v 0.432196 16.874289 0.682409
v 0.410615 17.037985 0.655149
v 0.401317 17.035370 0.665479
v 0.310409 17.189712 0.639202
v 0.303338 17.183725 0.649886
v 0.157843 17.289371 0.628727
v 0.154162 17.281170 0.639644
v -0.007804 17.320788 0.625425
v -0.007804 17.311889 0.636416
v -0.173451 17.289371 0.628727
v -0.169770 17.281170 0.639644
v -0.326018 17.189712 0.639202
v -0.318946 17.183725 0.649886
v -0.426224 17.037985 0.655149
v -0.416926 17.035370 0.665479
v -0.457804 16.873245 0.672464
v -0.447804 16.874289 0.682409
vt 0.202401 0.325609
vt 0.202401 0.441870
vt 0.202401 0.558130
vt 0.202401 0.674391
vt 0.321441 0.209348
vt 0.321441 0.325609
vt 0.321441 0.441870
vt 0.321441 0.558130
vt 0.321441 0.674391
vt 0.321441 0.790652
vt 0.440480 0.209348
vt 0.440480 0.325609
vt 0.440480 0.441870
vt 0.440480 0.558130
vt 0.440480 0.674391
vt 0.440480 0.790652
vt 0.559520 0.209348
vt 0.559520 0.325609
vt 0.559520 0.441870
vt 0.559520 0.558130
vt 0.559520 0.674391
vt 0.559520 0.790652
vt 0.678559 0.209348
vt 0.678559 0.325609
vt 0.678559 0.441870
vt 0.678559 0.558130
vt 0.678559 0.674391
vt 0.678559 0.790652
vt 0.797599 0.325609
vt 0.797599 0.441870
vt 0.797599 0.558130
vt 0.797599 0.674391
vt 0.916638 0.500000
vt 0.887399 0.649784
vt 0.794622 0.787738
vt 0.653367 0.878348
vt 0.500000 0.906913
vt 0.346633 0.878348
vt 0.205378 0.787738
vt 0.112601 0.649784
vt 0.083362 0.500000
vt 0.112601 0.350216
vt 0.205378 0.212262
vt 0.346633 0.121652
vt 0.500000 0.093087
vt 0.653367 0.121652
vt 0.794622 0.212262
vt 0.887399 0.350216
vt 0.000000 0.000000
vt 0.000000 1.000000
vt 0.119990 0.000000
vt 0.119990 1.000000
vt 0.250000 0.000000
vt 0.250000 1.000000
vt 0.380010 0.000000
vt 0.380010 1.000000
vt 0.500000 0.000000
vt 0.500000 1.000000
vt 0.619990 0.000000
vt 0.619990 1.000000
vt 0.750000 0.000000
vt 0.750000 1.000000
vt 0.880010 0.000000
vt 0.880010 1.000000
vt 1.000000 0.000000
vt 1.000000 1.000000
vt 0.000000 0.000000
vt 0.000000 1.000000
vt 0.119990 0.000000
vt 0.119990 1.000000
vt 0.250000 0.000000
vt 0.250000 1.000000
vt 0.380010 0.000000
vt 0.380010 1.000000
vt 0.500000 0.000000
vt 0.500000 1.000000
vt 0.619990 0.000000
vt 0.619990 1.000000
vt 0.750000 0.000000
vt 0.750000 1.000000
vt 0.880010 0.000000
vt 0.880010 1.000000
vt 1.000000 0.000000
vt 1.000000 1.000000
vn 0.000000 0.104528 0.994522
vn 0.000000 0.104528 0.994522
vn 0.000000 0.104528 0.994522
vn 0.000000 0.104528 0.994522
vn -0.000000 0.104528 0.994522
vn -0.000000 0.104528 0.994522
vn 0.000000 0.104528 0.994522
vn 0.000000 0.104528 0.994522
vn 0.000000 0.104528 0.994522
vn -0.000000 0.104528 0.994522
vn -0.000000 0.104528 0.994522
vn 0.000000 0.104528 0.994522
vn -0.000000 0.104528 0.994522
vn 0.000000 0.104528 0.994522
vn 0.000000 0.104528 0.994522
vn 0.000000 0.104528 0.994522
vn 0.000000 0.104528 0.994522
vn -0.000000 0.104528 0.994522
vn 0.000000 0.104528 0.994522
vn -0.000000 0.104528 0.994522
vn 0.000000 0.104528 0.994522
vn 0.000000 0.104528 0.994522
vn 0.000000 0.104528 0.994522
vn -0.000000 0.104528 0.994522
vn 0.000000 0.104528 0.994522
vn -0.000000 0.104528 0.994522
vn 0.000000 0.104528 0.994522
vn 0.000000 0.104528 0.994522
vn 0.000000 0.104528 0.994522
vn 0.000000 0.104528 0.994522
vn -0.000000 0.104528 0.994522
vn 0.000000 0.104528 0.994522
vn 0.000000 0.104528 0.994522
vn 0.000000 0.104528 0.994522
vn 0.000000 0.104528 0.994522
vn 0.000000 0.104528 0.994522
vn 0.000000 0.104528 0.994522
vn 0.000000 0.104528 0.994522
vn 0.000000 0.104528 0.994522
vn 0.000000 0.104528 0.994522
vn 0.000000 0.104528 0.994522
vn 0.000000 0.104528 0.994522
vn 0.000000 0.104528 0.994522
vn 0.000000 0.104528 0.994522
vn 0.000000 0.104528 0.994522
vn 0.000000 0.104528 0.994522
vn 0.000000 0.104528 0.994522
vn 0.000000 0.104528 0.994522
vn -0.929749 -0.366176 0.038487
vn -0.000000 0.104528 0.994522
vn -0.000000 0.104528 0.994522
vn -1.000000 0.000359 -0.000038
vn -0.368151 -0.924673 0.097187
vn -0.000000 0.104528 0.994522
vn 0.000000 0.104528 0.994522
vn -0.707113 -0.703227 0.073912
vn 0.000000 -0.994522 0.104528
vn 0.000000 0.104528 0.994522
vn 0.707113 -0.703227 0.073912
vn -0.000000 0.104528 0.994522
vn -0.000000 0.104528 0.994522
vn 0.368151 -0.924673 0.097187
vn 1.000000 0.000359 -0.000038
vn -0.000000 0.104528 0.994522
vn -0.000000 0.104528 0.994522
vn 0.929749 -0.366176 0.038487
vn 0.929749 0.366176 -0.038487
vn 0.000000 0.104528 0.994522
vn -0.000000 0.104528 0.994522
vn 1.000000 -0.000359 0.000038
vn 0.368151 0.924673 -0.097187
vn -0.000000 0.104528 0.994522
vn -0.000000 0.104528 0.994522
vn 0.707113 0.703227 -0.073912
vn -0.000000 0.994522 -0.104528
vn -0.000000 0.104528 0.994522
vn -0.707113 0.703227 -0.073912
vn 0.000000 0.104528 0.994522
vn 0.000000 0.104528 0.994522
vn -0.368151 0.924673 -0.097187
vn -1.000000 -0.000359 0.000038
vn -0.000000 0.104528 0.994522
vn 0.000000 0.104528 0.994522
vn -0.929749 0.366176 -0.038487
s 1
g camera LayerFBXASC03202
f 7/7/1 2/2/2 1/1/3 6/6/4
f 8/8/5 3/3/6 2/2/2 7/7/1
f 9/9/7 4/4/8 3/3/6 8/8/5
f 12/12/9 6/6/4 5/5/10 11/11/11
f 13/13/12 7/7/1 6/6/4 12/12/9
f 14/14/13 8/8/5 7/7/1 13/13/12
f 15/15/14 9/9/7 8/8/5 14/14/13
f 16/16/15 10/10/16 9/9/7 15/15/14
f 18/18/17 12/12/9 11/11/11 17/17/18
f 19/19/19 13/13/12 12/12/9 18/18/17
f 20/20/20 14/14/13 13/13/12 19/19/19
f 21/21/21 15/15/14 14/14/13 20/20/20
f 22/22/22 16/16/15 15/15/14 21/21/21
f 24/24/23 18/18/17 17/17/18 23/23/24
f 25/25/25 19/19/19 18/18/17 24/24/23
f 26/26/26 20/20/20 19/19/19 25/25/25
f 27/27/27 21/21/21 20/20/20 26/26/26
f 28/28/28 22/22/22 21/21/21 27/27/27
f 30/30/29 25/25/25 24/24/23 29/29/30
f 31/31/31 26/26/26 25/25/25 30/30/29
f 32/32/32 27/27/27 26/26/26 31/31/31
f 2/2/2 42/42/33 1/1/3
f 43/43/34 1/1/3 42/42/33
f 3/3/6 41/41/35 2/2/2
f 42/42/33 2/2/2 41/41/35
f 11/11/11 5/5/10 44/44/36
f 43/43/34 44/44/36 5/5/10
f 43/43/34 5/5/10 6/6/4
f 1/1/3 43/43/34 6/6/4
f 11/11/11 44/44/36 45/45/37
f 4/4/8 40/40/38 3/3/6
f 41/41/35 3/3/6 40/40/38
f 40/40/38 4/4/8 39/39/39
f 4/4/8 9/9/7 39/39/39
f 39/39/39 9/9/7 10/10/16
f 37/37/40 38/38/41 16/16/15
f 10/10/16 16/16/15 38/38/41
f 16/16/15 22/22/22 37/37/40
f 39/39/39 10/10/16 38/38/41
f 17/17/18 45/45/37 46/46/42
f 46/46/42 23/23/24 17/17/18
f 23/23/24 46/46/42 47/47/43
f 29/29/30 24/24/23 47/47/43
f 23/23/24 47/47/43 24/24/23
f 30/30/29 29/29/30 48/48/44
f 47/47/43 48/48/44 29/29/30
f 33/33/45 30/30/29 48/48/44
f 35/35/46 36/36/47 28/28/28
f 22/22/22 28/28/28 36/36/47
f 28/28/28 27/27/27 35/35/46
f 37/37/40 22/22/22 36/36/47
f 34/34/48 31/31/31 33/33/45
f 30/30/29 33/33/45 31/31/31
f 34/34/48 35/35/46 32/32/32
f 32/32/32 35/35/46 27/27/27
f 31/31/31 34/34/48 32/32/32
f 45/45/37 17/17/18 11/11/11
s 2
f 51/51/49 52/52/50 50/50/51 49/49/52
f 55/55/53 56/56/54 54/54/55 53/53/56
f 53/53/56 54/54/55 52/52/50 51/51/49
f 57/57/57 58/58/58 56/56/54 55/55/53
f 61/61/59 62/62/60 60/60/61 59/59/62
f 65/65/63 66/66/64 64/64/65 63/63/66
f 63/63/66 64/64/65 62/62/60 61/61/59
f 59/59/62 60/60/61 58/58/58 57/57/57
s 5
f 69/69/67 70/70/68 68/68/69 67/67/70
f 73/73/71 74/74/72 72/72/73 71/71/74
f 71/71/74 72/72/73 70/70/68 69/69/67
f 75/75/75 76/76/76 74/74/72 73/73/71
f 79/79/77 80/80/78 78/78/79 77/77/80
f 83/83/81 84/84/82 82/82/83 81/81/84
f 81/81/84 82/82/83 80/80/78 79/79/77
f 77/77/80 78/78/79 76/76/76 75/75/75
